<?xml version="1.0" encoding="utf-8"?>
<!-- Generator: Adobe Illustrator 17.1.0, SVG Export Plug-In . SVG Version: 6.00 Build 0)  -->
<!DOCTYPE svg PUBLIC "-//W3C//DTD SVG 1.1//EN" "http://www.w3.org/Graphics/SVG/1.1/DTD/svg11.dtd">
<svg version="1.1" id="Layer_1" xmlns="http://www.w3.org/2000/svg" xmlns:xlink="http://www.w3.org/1999/xlink" x="0px" y="0px"
	 viewBox="0 0 157.464 118.082" enable-background="new 0 0 157.464 118.082" xml:space="preserve">
<path stroke="#000000" stroke-miterlimit="10" d="M128.194,74.212l1.032-23.179c0-1.853-1.502-3.355-3.355-3.355H46.081
	c-1.853,0-3.355,1.502-3.355,3.355L42.74,98.8c0.001,1.831,1.505,3.304,3.336,3.266l2.803-0.058
	c0.332-0.007,0.662-0.065,0.977-0.171C49.855,101.837,92.217,96.282,128.194,74.212z"/>
<circle cx="64" cy="22.5" r="22.5"/>
<circle cx="108.25" cy="27.25" r="17.25"/>
<path fill="none" stroke="#000000" stroke-width="3" stroke-miterlimit="10" d="M77.5,7.5c0,0,16,21.5,26.5,4.5"/>
<path fill="none" stroke="#000000" stroke-miterlimit="10" d="M124,23c0,0,44,18,29.5,39.5S49.038,42.597,30.833,82.466
	C13.75,119.875,84,101.25,128.737,76.701"/>
<path fill="none" stroke="#000000" stroke-miterlimit="10" d="M124,28.846c0.254-0.001,45.622,17.994,29.5,39.5
	C137.945,89.095,47.525,41.94,30.833,82.466c-15.666,38.034,46.073,35.385,99.073,34.885"/>
<rect x="36.5" y="62.5" width="4.5" height="16.5"/>
<rect x="10" y="56" width="25" height="29"/>
<path d="M5.993,87H2.507C1.122,87,0,85.878,0,84.493V56.007C0,54.622,1.122,53.5,2.507,53.5h3.486c1.385,0,2.507,1.122,2.507,2.507
	v28.486C8.5,85.878,7.378,87,5.993,87z"/>
<circle fill="#FFFFFF" cx="64.363" cy="22.212" r="16.638"/>
<circle fill="#FFFFFF" cx="108.312" cy="26.573" r="13.311"/>
<line fill="none" x1="64.265" y1="2.869" x2="64.265" y2="41.195"/>
<circle cx="64.011" cy="22.319" r="3.844"/>
<line fill="none" stroke="#000000" stroke-width="4" stroke-miterlimit="10" x1="64.118" y1="2.869" x2="64.118" y2="40.277"/>
<line fill="none" stroke="#000000" stroke-width="4" stroke-miterlimit="10" x1="46.135" y1="21.917" x2="82.395" y2="21.917"/>
<circle cx="108.594" cy="26.402" r="2.768"/>
<line fill="none" stroke="#000000" stroke-width="2" stroke-miterlimit="10" x1="108.41" y1="11.822" x2="108.41" y2="41.351"/>
<line fill="none" stroke="#000000" stroke-width="2" stroke-miterlimit="10" x1="93.399" y1="26.34" x2="123.789" y2="26.34"/>
<path fill="none" stroke="#000000" stroke-width="3" stroke-miterlimit="10" d="M62,84"/>
<path fill="none" stroke="#000000" stroke-miterlimit="10" d="M128.898,117.024l-0.188-3.505c0,0,0,0-1.875-0.117
	c-1.875-0.117-0.75-30.96-0.75-32.012c0-1.051,3-1.168,3-1.168l-0.281-3.388"/>
<path d="M124.494,23.34l0.396,5.447c0,0,22.732,10.003,32.042,25.453C155.347,47.011,153.512,37.404,124.494,23.34z"/>
<path d="M128.356,69.386l-0.198,3.758c0,0,28.774,5.994,28.774-14.941c-3.518,5.189-5.796,8.857-9.461,9.573
	C143.806,68.491,128.356,69.386,128.356,69.386z"/>
<polygon points="156.932,56.446 156.932,60.347 155.013,62.12 154.304,60.595 "/>
<polygon points="152.814,63.894 151.679,66.944 147.743,68.362 145.686,68.22 146.076,67.724 "/>
<path d="M29.111,98.133c0,0,2.132,10.503,20.453,15.162c0,0,15.478,2.764,26.376,3.475c0,0,20.769,0.632,25.744,0.79
	c4.975,0.158,27.245-0.237,27.245-0.237l-0.219-3.805l-1.875-0.117c0,0-1.381-6.108-1.144-13.136
	c0.237-7.028,0.632-19.269,0.632-19.269l2.762-0.775l-0.393-2.857l-0.395-0.395c0,0-15.794,7.897-18.321,9.003
	s-15.004,6.476-17.61,7.186c-2.606,0.711-12.082,4.422-12.082,4.422l-13.03,3.396l-13.978,2.527h-10.74c0,0-3.001,0-4.896-0.711
	S29.111,98.133,29.111,98.133z"/>
<polygon fill="#FFFFFF" stroke="#000000" stroke-miterlimit="10" points="123.457,82.915 123.784,113.02 103.823,112.692 
	103.496,91.423 "/>
<polygon fill="#FFFFFF" stroke="#000000" stroke-miterlimit="10" points="101.533,92.404 101.551,113.616 86.48,114.001 
	86.808,97.64 "/>
<polygon fill="#FFFFFF" stroke="#000000" stroke-miterlimit="10" points="84.517,98.295 84.205,114.344 72.917,114.083 
	72.625,101.5 "/>
<polygon fill="#FFFFFF" stroke="#000000" stroke-miterlimit="10" points="70.309,101.948 70.75,113.875 63.649,112.99 
	63.296,103.86 "/>
<polygon fill="#FFFFFF" stroke="#000000" stroke-miterlimit="10" points="60.999,104.213 60.999,113.107 52.167,111.708 
	56.051,105.097 "/>
<polygon fill="#FFFFFF" stroke="#000000" stroke-miterlimit="10" points="53.518,105.686 50.455,111.399 44.683,109.632 
	49.513,105.98 "/>
<polygon fill="#FFFFFF" stroke="#000000" stroke-miterlimit="10" points="47.242,105.705 42.065,108.33 38.701,106.629 
	41.252,105.557 "/>
</svg>
